<svg xmlns="http://www.w3.org/2000/svg" viewBox="0 0 24 24" fill="none" stroke="currentColor" stroke-width="2" stroke-linecap="round" stroke-linejoin="round">
  <style>
    svg { color: #18181b; }
    @media (prefers-color-scheme: dark) {
      svg { color: #f4f4f5; }
    }
  </style>
  <path d="M12 5a3 3 0 1 0-5.997.125 4 4 0 0 0-2.526 5.77 4 4 0 0 0 .556 6.588A4 4 0 1 0 12 18Z"/>
  <path d="M12 5a3 3 0 1 1 5.997.125 4 4 0 0 1 2.526 5.77 4 4 0 0 1-.556 6.588A4 4 0 1 1 12 18Z"/>
  <path d="M12 5v14"/>
  <path d="M12 9h4a1 1 0 0 1 1 1v1a3 3 0 0 1-3 3h-2"/>
  <path d="M12 14h-4a1 1 0 0 1-1-1v-1a3 3 0 0 1 3-3h2"/>
</svg>
